<svg width="24" height="24" viewBox="0 0 24 24" fill="none" xmlns="http://www.w3.org/2000/svg">
<path fill-rule="evenodd" clip-rule="evenodd" d="M6.7934 17.207C7.02772 17.4413 7.40762 17.4413 7.64193 17.207L17.2072 7.64176C17.4415 7.40745 17.4415 7.02755 17.2071 6.79323C16.9728 6.55892 16.5929 6.55892 16.3586 6.79323L6.7934 16.3585C6.55909 16.5928 6.55909 16.9727 6.7934 17.207Z" fill="#052D61"/>
<path fill-rule="evenodd" clip-rule="evenodd" d="M17.2066 17.207C16.9723 17.4413 16.5924 17.4413 16.3581 17.207L6.79285 7.64176C6.55854 7.40745 6.55854 7.02755 6.79285 6.79323C7.02716 6.55892 7.40706 6.55892 7.64138 6.79323L17.2066 16.3585C17.4409 16.5928 17.4409 16.9727 17.2066 17.207Z" fill="#052D61"/>
</svg>
