<svg width="20" height="20" viewBox="0 0 20 20" fill="none" xmlns="http://www.w3.org/2000/svg">
<path d="M10 7.70573C10.3452 7.70573 10.625 7.98555 10.625 8.33073V12.7057H11.6667C12.0119 12.7057 12.2917 12.9856 12.2917 13.3307C12.2917 13.6759 12.0119 13.9557 11.6667 13.9557H8.33335C7.98818 13.9557 7.70835 13.6759 7.70835 13.3307C7.70835 12.9856 7.98818 12.7057 8.33335 12.7057H9.37502V8.95573H8.33335C7.98818 8.95573 7.70835 8.67591 7.70835 8.33073C7.70835 7.98555 7.98818 7.70573 8.33335 7.70573H10Z" fill="#667C99"/>
<path d="M10 6.66406C10.4603 6.66406 10.8334 6.29097 10.8334 5.83073C10.8334 5.37049 10.4603 4.9974 10 4.9974C9.53978 4.9974 9.16669 5.37049 9.16669 5.83073C9.16669 6.29097 9.53978 6.66406 10 6.66406Z" fill="#667C99"/>
<path fill-rule="evenodd" clip-rule="evenodd" d="M10 18.3307C14.6024 18.3307 18.3334 14.5998 18.3334 9.9974C18.3334 5.39502 14.6024 1.66406 10 1.66406C5.39765 1.66406 1.66669 5.39502 1.66669 9.9974C1.66669 14.5998 5.39765 18.3307 10 18.3307ZM10 17.0807C13.912 17.0807 17.0834 13.9094 17.0834 9.9974C17.0834 6.08538 13.912 2.91406 10 2.91406C6.088 2.91406 2.91669 6.08538 2.91669 9.9974C2.91669 13.9094 6.088 17.0807 10 17.0807Z" fill="#667C99"/>
</svg>
