<svg width="24" height="24" viewBox="0 0 24 24" fill="none" xmlns="http://www.w3.org/2000/svg">
<path d="M19.8333 12.9974C19.8333 17.3236 16.3262 20.8307 12 20.8307C7.67373 20.8307 4.16663 17.3236 4.16663 12.9974C4.16663 8.67117 7.67373 5.16406 12 5.16406C16.3262 5.16406 19.8333 8.67117 19.8333 12.9974Z" stroke="#667C99"/>
<path d="M14 12.9974C14 15.2639 13.7238 17.2966 13.2889 18.7463C13.0704 19.4743 12.8203 20.027 12.5653 20.3866C12.301 20.7591 12.1028 20.8307 12 20.8307C11.8972 20.8307 11.699 20.7591 11.4347 20.3866C11.1797 20.027 10.9296 19.4743 10.7111 18.7463C10.2762 17.2966 10 15.2639 10 12.9974C10 10.7309 10.2762 8.69818 10.7111 7.24851C10.9296 6.52049 11.1797 5.96777 11.4347 5.6082C11.699 5.23565 11.8972 5.16406 12 5.16406C12.1028 5.16406 12.301 5.23565 12.5653 5.6082C12.8203 5.96777 13.0704 6.52049 13.2889 7.24851C13.7238 8.69818 14 10.7309 14 12.9974Z" stroke="#667C99"/>
<line x1="4.5" y1="10" x2="19.5" y2="10" stroke="#667C99"/>
<line x1="4.5" y1="15.8281" x2="19.5" y2="15.8281" stroke="#667C99"/>
</svg>
