<svg width="18" height="18" viewBox="0 0 18 18" fill="none" xmlns="http://www.w3.org/2000/svg">
<path d="M16.8337 8.9974C16.8337 13.3236 13.3266 16.8307 9.00033 16.8307C4.6741 16.8307 1.16699 13.3236 1.16699 8.9974C1.16699 4.67117 4.6741 1.16406 9.00033 1.16406C13.3266 1.16406 16.8337 4.67117 16.8337 8.9974Z" stroke="#667C99"/>
<path d="M11 8.9974C11 11.2639 10.7238 13.2966 10.2889 14.7463C10.0704 15.4743 9.82031 16.027 9.56528 16.3866C9.30104 16.7591 9.10277 16.8307 9 16.8307C8.89723 16.8307 8.69896 16.7591 8.43472 16.3866C8.17969 16.027 7.92955 15.4743 7.71115 14.7463C7.27624 13.2966 7 11.2639 7 8.9974C7 6.73085 7.27624 4.69818 7.71115 3.24851C7.92955 2.52049 8.17969 1.96777 8.43472 1.6082C8.69896 1.23565 8.89723 1.16406 9 1.16406C9.10277 1.16406 9.30104 1.23565 9.56528 1.6082C9.82031 1.96777 10.0704 2.52049 10.2889 3.24851C10.7238 4.69818 11 6.73085 11 8.9974Z" stroke="#667C99"/>
<line x1="1.5" y1="6" x2="16.5" y2="6" stroke="#667C99"/>
<line x1="1.5" y1="11.8281" x2="16.5" y2="11.8281" stroke="#667C99"/>
</svg>
