<svg width="80" height="80" viewBox="0 0 80 80" fill="none" xmlns="http://www.w3.org/2000/svg">
<g filter="url(#filter0_dddddd_7488_137843)">
<circle cx="40" cy="33" r="20" fill="#1D79F2"/>
</g>
<path fill-rule="evenodd" clip-rule="evenodd" d="M39.252 32.9444C36.8454 32.5834 35 30.5072 35 28C35 25.2386 37.2386 23 40 23C42.7614 23 45 25.2386 45 28C45 30.5072 43.1546 32.5834 40.748 32.9444C40.7493 32.9628 40.75 32.9813 40.75 33V40C40.75 41.5188 39.5188 42.75 38 42.75H37C36.5858 42.75 36.25 42.4142 36.25 42C36.25 41.5858 36.5858 41.25 37 41.25H38C38.6904 41.25 39.25 40.6904 39.25 40V38.75H37C36.5858 38.75 36.25 38.4142 36.25 38C36.25 37.5858 36.5858 37.25 37 37.25H39.25V33C39.25 32.9813 39.2507 32.9628 39.252 32.9444ZM36.5 28C36.5 29.933 38.067 31.5 40 31.5C41.933 31.5 43.5 29.933 43.5 28C43.5 26.067 41.933 24.5 40 24.5C38.067 24.5 36.5 26.067 36.5 28Z" fill="white"/>
<defs>
<filter id="filter0_dddddd_7488_137843" x="0" y="0" width="80" height="80" filterUnits="userSpaceOnUse" color-interpolation-filters="sRGB">
<feFlood flood-opacity="0" result="BackgroundImageFix"/>
<feColorMatrix in="SourceAlpha" type="matrix" values="0 0 0 0 0 0 0 0 0 0 0 0 0 0 0 0 0 0 127 0" result="hardAlpha"/>
<feOffset dy="0.12963"/>
<feGaussianBlur stdDeviation="0.393519"/>
<feColorMatrix type="matrix" values="0 0 0 0 0.0196078 0 0 0 0 0.176471 0 0 0 0 0.380392 0 0 0 0.0168519 0"/>
<feBlend mode="normal" in2="BackgroundImageFix" result="effect1_dropShadow_7488_137843"/>
<feColorMatrix in="SourceAlpha" type="matrix" values="0 0 0 0 0 0 0 0 0 0 0 0 0 0 0 0 0 0 127 0" result="hardAlpha"/>
<feOffset dy="0.57037"/>
<feGaussianBlur stdDeviation="0.814815"/>
<feColorMatrix type="matrix" values="0 0 0 0 0.0196078 0 0 0 0 0.176471 0 0 0 0 0.380392 0 0 0 0.0274815 0"/>
<feBlend mode="normal" in2="effect1_dropShadow_7488_137843" result="effect2_dropShadow_7488_137843"/>
<feColorMatrix in="SourceAlpha" type="matrix" values="0 0 0 0 0 0 0 0 0 0 0 0 0 0 0 0 0 0 127 0" result="hardAlpha"/>
<feOffset dy="1.4"/>
<feGaussianBlur stdDeviation="1.625"/>
<feColorMatrix type="matrix" values="0 0 0 0 0.0196078 0 0 0 0 0.176471 0 0 0 0 0.380392 0 0 0 0.035 0"/>
<feBlend mode="normal" in2="effect2_dropShadow_7488_137843" result="effect3_dropShadow_7488_137843"/>
<feColorMatrix in="SourceAlpha" type="matrix" values="0 0 0 0 0 0 0 0 0 0 0 0 0 0 0 0 0 0 127 0" result="hardAlpha"/>
<feOffset dy="2.6963"/>
<feGaussianBlur stdDeviation="3.18519"/>
<feColorMatrix type="matrix" values="0 0 0 0 0.0196078 0 0 0 0 0.176471 0 0 0 0 0.380392 0 0 0 0.0425185 0"/>
<feBlend mode="normal" in2="effect3_dropShadow_7488_137843" result="effect4_dropShadow_7488_137843"/>
<feColorMatrix in="SourceAlpha" type="matrix" values="0 0 0 0 0 0 0 0 0 0 0 0 0 0 0 0 0 0 127 0" result="hardAlpha"/>
<feOffset dy="4.53704"/>
<feGaussianBlur stdDeviation="5.85648"/>
<feColorMatrix type="matrix" values="0 0 0 0 0.0196078 0 0 0 0 0.176471 0 0 0 0 0.380392 0 0 0 0.0531481 0"/>
<feBlend mode="normal" in2="effect4_dropShadow_7488_137843" result="effect5_dropShadow_7488_137843"/>
<feColorMatrix in="SourceAlpha" type="matrix" values="0 0 0 0 0 0 0 0 0 0 0 0 0 0 0 0 0 0 127 0" result="hardAlpha"/>
<feOffset dy="7"/>
<feGaussianBlur stdDeviation="10"/>
<feColorMatrix type="matrix" values="0 0 0 0 0.0196078 0 0 0 0 0.176471 0 0 0 0 0.380392 0 0 0 0.07 0"/>
<feBlend mode="normal" in2="effect5_dropShadow_7488_137843" result="effect6_dropShadow_7488_137843"/>
<feBlend mode="normal" in="SourceGraphic" in2="effect6_dropShadow_7488_137843" result="shape"/>
</filter>
</defs>
</svg>
