<svg width="72" height="72" viewBox="0 0 72 72" fill="none" xmlns="http://www.w3.org/2000/svg">
<g filter="url(#filter0_d_9544_171714)">
<circle cx="36" cy="34" r="32" fill="#1D79F2"/>
</g>
<path d="M33 30.1031C33.8667 30.1031 34.6 29.8031 35.2 29.2031C35.8 28.6031 36.1 27.8697 36.1 27.0031C36.1 26.1364 35.8 25.4031 35.2 24.8031C34.6 24.2031 33.8667 23.9031 33 23.9031C32.1333 23.9031 31.4 24.2031 30.8 24.8031C30.2 25.4031 29.9 26.1364 29.9 27.0031C29.9 27.8697 30.2 28.6031 30.8 29.2031C31.4 29.8031 32.1333 30.1031 33 30.1031ZM29 40.1031C29.8667 40.1031 30.6 39.8031 31.2 39.2031C31.8 38.6031 32.1 37.8697 32.1 37.0031C32.1 36.1364 31.8 35.4031 31.2 34.8031C30.6 34.2031 29.8667 33.9031 29 33.9031C28.1333 33.9031 27.4 34.2031 26.8 34.8031C26.2 35.4031 25.9 36.1364 25.9 37.0031C25.9 37.8697 26.2 38.6031 26.8 39.2031C27.4 39.8031 28.1333 40.1031 29 40.1031ZM42 42.0031C42.5667 42.0031 43.0417 41.8114 43.425 41.4281C43.8083 41.0447 44 40.5697 44 40.0031C44 39.4364 43.8083 38.9614 43.425 38.5781C43.0417 38.1947 42.5667 38.0031 42 38.0031C41.4333 38.0031 40.9583 38.1947 40.575 38.5781C40.1917 38.9614 40 39.4364 40 40.0031C40 40.5697 40.1917 41.0447 40.575 41.4281C40.9583 41.8114 41.4333 42.0031 42 42.0031ZM36 54.0031C33.2667 54.0031 30.6833 53.4781 28.25 52.4281C25.8167 51.3781 23.6917 49.9447 21.875 48.1281C20.0583 46.3114 18.625 44.1864 17.575 41.7531C16.525 39.3197 16 36.7364 16 34.0031C16 30.9364 16.65 28.0697 17.95 25.4031C19.25 22.7364 20.9917 20.4781 23.175 18.6281C25.3583 16.7781 27.875 15.4447 30.725 14.6281C33.575 13.8114 36.5333 13.7031 39.6 14.3031C39.4 15.8031 39.5333 17.2197 40 18.5531C40.4667 19.8864 41.175 21.0197 42.125 21.9531C43.075 22.8864 44.2167 23.5697 45.55 24.0031C46.8833 24.4364 48.2833 24.5364 49.75 24.3031C49.0833 26.3364 49.45 28.1614 50.85 29.7781C52.25 31.3947 53.95 32.2864 55.95 32.4531C56.2167 35.3531 55.875 38.1031 54.925 40.7031C53.975 43.3031 52.5833 45.5864 50.75 47.5531C48.9167 49.5197 46.7333 51.0864 44.2 52.2531C41.6667 53.4197 38.9333 54.0031 36 54.0031ZM36 51.0031C40.7333 51.0031 44.6667 49.4447 47.8 46.3281C50.9333 43.2114 52.6833 39.3697 53.05 34.8031C51.25 34.1364 49.7917 33.1447 48.675 31.8281C47.5583 30.5114 46.8667 29.0031 46.6 27.3031C43.9 26.9364 41.625 25.7697 39.775 23.8031C37.925 21.8364 36.8667 19.5531 36.6 16.9531C34.1333 16.8531 31.825 17.2531 29.675 18.1531C27.525 19.0531 25.6583 20.2864 24.075 21.8531C22.4917 23.4197 21.25 25.2614 20.35 27.3781C19.45 29.4947 19 31.7031 19 34.0031C19 38.7364 20.65 42.7531 23.95 46.0531C27.25 49.3531 31.2667 51.0031 36 51.0031Z" fill="white"/>
<defs>
<filter id="filter0_d_9544_171714" x="0" y="0" width="72" height="72" filterUnits="userSpaceOnUse" color-interpolation-filters="sRGB">
<feFlood flood-opacity="0" result="BackgroundImageFix"/>
<feColorMatrix in="SourceAlpha" type="matrix" values="0 0 0 0 0 0 0 0 0 0 0 0 0 0 0 0 0 0 127 0" result="hardAlpha"/>
<feOffset dy="2"/>
<feGaussianBlur stdDeviation="2"/>
<feColorMatrix type="matrix" values="0 0 0 0 0.172549 0 0 0 0 0.172549 0 0 0 0 0.172549 0 0 0 0.16 0"/>
<feBlend mode="normal" in2="BackgroundImageFix" result="effect1_dropShadow_9544_171714"/>
<feBlend mode="normal" in="SourceGraphic" in2="effect1_dropShadow_9544_171714" result="shape"/>
</filter>
</defs>
</svg>
