<svg width="88" height="88" viewBox="0 0 88 88" fill="none" xmlns="http://www.w3.org/2000/svg">
<g filter="url(#filter0_dddddd_7488_138065)">
<path d="M20 15.8284C20 14.0466 22.1543 13.1543 23.4142 14.4142L66.5858 57.5858C67.8457 58.8457 66.9534 61 65.1716 61H22C20.8954 61 20 60.1046 20 59V15.8284Z" fill="#1D79F2"/>
</g>
<path fill-rule="evenodd" clip-rule="evenodd" d="M36.252 45.9444C33.8454 45.5834 32 43.5072 32 41C32 38.2386 34.2386 36 37 36C39.7614 36 42 38.2386 42 41C42 43.5072 40.1546 45.5834 37.748 45.9444C37.7493 45.9628 37.75 45.9813 37.75 46V53C37.75 54.5188 36.5188 55.75 35 55.75H34C33.5858 55.75 33.25 55.4142 33.25 55C33.25 54.5858 33.5858 54.25 34 54.25H35C35.6904 54.25 36.25 53.6904 36.25 53V51.75H34C33.5858 51.75 33.25 51.4142 33.25 51C33.25 50.5858 33.5858 50.25 34 50.25H36.25V46C36.25 45.9813 36.2507 45.9628 36.252 45.9444ZM33.5 41C33.5 42.933 35.067 44.5 37 44.5C38.933 44.5 40.5 42.933 40.5 41C40.5 39.067 38.933 37.5 37 37.5C35.067 37.5 33.5 39.067 33.5 41Z" fill="white"/>
<defs>
<filter id="filter0_dddddd_7488_138065" x="0" y="0.824463" width="87.1758" height="87.1755" filterUnits="userSpaceOnUse" color-interpolation-filters="sRGB">
<feFlood flood-opacity="0" result="BackgroundImageFix"/>
<feColorMatrix in="SourceAlpha" type="matrix" values="0 0 0 0 0 0 0 0 0 0 0 0 0 0 0 0 0 0 127 0" result="hardAlpha"/>
<feOffset dy="0.12963"/>
<feGaussianBlur stdDeviation="0.393519"/>
<feColorMatrix type="matrix" values="0 0 0 0 0.0196078 0 0 0 0 0.176471 0 0 0 0 0.380392 0 0 0 0.0168519 0"/>
<feBlend mode="normal" in2="BackgroundImageFix" result="effect1_dropShadow_7488_138065"/>
<feColorMatrix in="SourceAlpha" type="matrix" values="0 0 0 0 0 0 0 0 0 0 0 0 0 0 0 0 0 0 127 0" result="hardAlpha"/>
<feOffset dy="0.57037"/>
<feGaussianBlur stdDeviation="0.814815"/>
<feColorMatrix type="matrix" values="0 0 0 0 0.0196078 0 0 0 0 0.176471 0 0 0 0 0.380392 0 0 0 0.0274815 0"/>
<feBlend mode="normal" in2="effect1_dropShadow_7488_138065" result="effect2_dropShadow_7488_138065"/>
<feColorMatrix in="SourceAlpha" type="matrix" values="0 0 0 0 0 0 0 0 0 0 0 0 0 0 0 0 0 0 127 0" result="hardAlpha"/>
<feOffset dy="1.4"/>
<feGaussianBlur stdDeviation="1.625"/>
<feColorMatrix type="matrix" values="0 0 0 0 0.0196078 0 0 0 0 0.176471 0 0 0 0 0.380392 0 0 0 0.035 0"/>
<feBlend mode="normal" in2="effect2_dropShadow_7488_138065" result="effect3_dropShadow_7488_138065"/>
<feColorMatrix in="SourceAlpha" type="matrix" values="0 0 0 0 0 0 0 0 0 0 0 0 0 0 0 0 0 0 127 0" result="hardAlpha"/>
<feOffset dy="2.6963"/>
<feGaussianBlur stdDeviation="3.18519"/>
<feColorMatrix type="matrix" values="0 0 0 0 0.0196078 0 0 0 0 0.176471 0 0 0 0 0.380392 0 0 0 0.0425185 0"/>
<feBlend mode="normal" in2="effect3_dropShadow_7488_138065" result="effect4_dropShadow_7488_138065"/>
<feColorMatrix in="SourceAlpha" type="matrix" values="0 0 0 0 0 0 0 0 0 0 0 0 0 0 0 0 0 0 127 0" result="hardAlpha"/>
<feOffset dy="4.53704"/>
<feGaussianBlur stdDeviation="5.85648"/>
<feColorMatrix type="matrix" values="0 0 0 0 0.0196078 0 0 0 0 0.176471 0 0 0 0 0.380392 0 0 0 0.0531481 0"/>
<feBlend mode="normal" in2="effect4_dropShadow_7488_138065" result="effect5_dropShadow_7488_138065"/>
<feColorMatrix in="SourceAlpha" type="matrix" values="0 0 0 0 0 0 0 0 0 0 0 0 0 0 0 0 0 0 127 0" result="hardAlpha"/>
<feOffset dy="7"/>
<feGaussianBlur stdDeviation="10"/>
<feColorMatrix type="matrix" values="0 0 0 0 0.0196078 0 0 0 0 0.176471 0 0 0 0 0.380392 0 0 0 0.07 0"/>
<feBlend mode="normal" in2="effect5_dropShadow_7488_138065" result="effect6_dropShadow_7488_138065"/>
<feBlend mode="normal" in="SourceGraphic" in2="effect6_dropShadow_7488_138065" result="shape"/>
</filter>
</defs>
</svg>
