<svg width="88" height="88" fill="none" xmlns="http://www.w3.org/2000/svg"><g filter="url(#filter0_dddddd_7488_138065)"><path d="M20 15.828c0-1.781 2.154-2.674 3.414-1.414l43.172 43.172c1.26 1.26.367 3.414-1.414 3.414H22a2 2 0 01-2-2V15.828z" fill="#1D79F2"/></g><path fill-rule="evenodd" clip-rule="evenodd" d="M36.252 45.944a5.001 5.001 0 111.496 0 .788.788 0 01.002.056v7A2.75 2.75 0 0135 55.75h-1a.75.75 0 010-1.5h1c.69 0 1.25-.56 1.25-1.25v-1.25H34a.75.75 0 010-1.5h2.25V46c0-.019 0-.037.002-.056zM33.5 41a3.5 3.5 0 107 0 3.5 3.5 0 00-7 0z" fill="#fff"/><defs><filter id="filter0_dddddd_7488_138065" x="0" y=".824" width="87.176" height="87.175" filterUnits="userSpaceOnUse" color-interpolation-filters="sRGB"><feFlood flood-opacity="0" result="BackgroundImageFix"/><feColorMatrix in="SourceAlpha" values="0 0 0 0 0 0 0 0 0 0 0 0 0 0 0 0 0 0 127 0" result="hardAlpha"/><feOffset dy=".13"/><feGaussianBlur stdDeviation=".394"/><feColorMatrix values="0 0 0 0 0.0196078 0 0 0 0 0.176471 0 0 0 0 0.380392 0 0 0 0.0168519 0"/><feBlend in2="BackgroundImageFix" result="effect1_dropShadow_7488_138065"/><feColorMatrix in="SourceAlpha" values="0 0 0 0 0 0 0 0 0 0 0 0 0 0 0 0 0 0 127 0" result="hardAlpha"/><feOffset dy=".57"/><feGaussianBlur stdDeviation=".815"/><feColorMatrix values="0 0 0 0 0.0196078 0 0 0 0 0.176471 0 0 0 0 0.380392 0 0 0 0.0274815 0"/><feBlend in2="effect1_dropShadow_7488_138065" result="effect2_dropShadow_7488_138065"/><feColorMatrix in="SourceAlpha" values="0 0 0 0 0 0 0 0 0 0 0 0 0 0 0 0 0 0 127 0" result="hardAlpha"/><feOffset dy="1.4"/><feGaussianBlur stdDeviation="1.625"/><feColorMatrix values="0 0 0 0 0.0196078 0 0 0 0 0.176471 0 0 0 0 0.380392 0 0 0 0.035 0"/><feBlend in2="effect2_dropShadow_7488_138065" result="effect3_dropShadow_7488_138065"/><feColorMatrix in="SourceAlpha" values="0 0 0 0 0 0 0 0 0 0 0 0 0 0 0 0 0 0 127 0" result="hardAlpha"/><feOffset dy="2.696"/><feGaussianBlur stdDeviation="3.185"/><feColorMatrix values="0 0 0 0 0.0196078 0 0 0 0 0.176471 0 0 0 0 0.380392 0 0 0 0.0425185 0"/><feBlend in2="effect3_dropShadow_7488_138065" result="effect4_dropShadow_7488_138065"/><feColorMatrix in="SourceAlpha" values="0 0 0 0 0 0 0 0 0 0 0 0 0 0 0 0 0 0 127 0" result="hardAlpha"/><feOffset dy="4.537"/><feGaussianBlur stdDeviation="5.856"/><feColorMatrix values="0 0 0 0 0.0196078 0 0 0 0 0.176471 0 0 0 0 0.380392 0 0 0 0.0531481 0"/><feBlend in2="effect4_dropShadow_7488_138065" result="effect5_dropShadow_7488_138065"/><feColorMatrix in="SourceAlpha" values="0 0 0 0 0 0 0 0 0 0 0 0 0 0 0 0 0 0 127 0" result="hardAlpha"/><feOffset dy="7"/><feGaussianBlur stdDeviation="10"/><feColorMatrix values="0 0 0 0 0.0196078 0 0 0 0 0.176471 0 0 0 0 0.380392 0 0 0 0.07 0"/><feBlend in2="effect5_dropShadow_7488_138065" result="effect6_dropShadow_7488_138065"/><feBlend in="SourceGraphic" in2="effect6_dropShadow_7488_138065" result="shape"/></filter></defs></svg>