<svg width="16" height="16" viewBox="0 0 16 16" fill="none" xmlns="http://www.w3.org/2000/svg">
<path fill-rule="evenodd" clip-rule="evenodd" d="M8 16C12.4183 16 16 12.4183 16 8C16 3.58172 12.4183 0 8 0C3.58172 0 0 3.58172 0 8C0 12.4183 3.58172 16 8 16ZM12.5657 6.16569C12.8781 5.85327 12.8781 5.34673 12.5657 5.03431C12.2533 4.7219 11.7467 4.7219 11.4343 5.03431L6.4 10.0686L4.56569 8.23431C4.25327 7.9219 3.74673 7.9219 3.43431 8.23431C3.1219 8.54673 3.1219 9.05327 3.43431 9.36569L5.55147 11.4828C6.0201 11.9515 6.7799 11.9515 7.24853 11.4828L12.5657 6.16569Z" fill="#1D79F2"/>
</svg>
